<?xml version="1.0" encoding="utf-8"?>
<!-- Generator: Adobe Illustrator 19.0.0, SVG Export Plug-In . SVG Version: 6.00 Build 0)  -->
<svg version="1.1" id="Layer_1" xmlns="http://www.w3.org/2000/svg" xmlns:xlink="http://www.w3.org/1999/xlink" x="0px" y="0px"
	 viewBox="0 0 790 240" style="enable-background:new 0 0 790 240;" xml:space="preserve">
<style type="text/css">
	.st0{fill:url(#XMLID_90_);}
	.st1{fill:#FFFFFF;}
	.st2{fill:#D42427;}
	.st3{fill:#BDBEC0;}
</style>
<g id="XMLID_2_">
	<g id="XMLID_63_">
		<linearGradient id="XMLID_90_" gradientUnits="userSpaceOnUse" x1="22.4494" y1="217.0503" x2="223.1594" y2="17.3696">
			<stop  offset="0" style="stop-color:#F58220"/>
			<stop  offset="0.5824" style="stop-color:#D42427"/>
		</linearGradient>
		<path id="XMLID_89_" class="st0" d="M214.5,230h-189C17,230,10,223,10,214.5v-189C10,17,17,10,25.5,10h189c8.5,0,15.5,7,15.5,15.5
			v189C230,223,223,230,214.5,230z"/>
		<g id="XMLID_64_">
			<g id="XMLID_72_">
				<path id="XMLID_87_" class="st1" d="M57.5,201.4c-0.2,0.2-0.5,0.3-0.8,0.3c-0.3,0-0.6-0.1-0.8-0.3c-0.2-0.2-0.3-0.5-0.3-0.8
					v-8.4c0-0.3,0.1-0.6,0.3-0.8c0.2-0.2,0.5-0.3,0.8-0.3c0.3,0,0.6,0.1,0.8,0.3c0.2,0.2,0.3,0.5,0.3,0.8v8.4
					C57.9,200.9,57.7,201.2,57.5,201.4z"/>
				<path id="XMLID_85_" class="st1" d="M77.4,191.4c0.2-0.2,0.5-0.3,0.8-0.3c0.3,0,0.6,0.1,0.8,0.3c0.2,0.2,0.3,0.5,0.3,0.8v7.1
					c0,0.7-0.2,1.2-0.7,1.7c-0.5,0.5-1,0.7-1.7,0.7c-0.2,0-0.5,0-0.7-0.1c-0.2-0.1-0.4-0.2-0.6-0.3l-11.3-6.9
					c-0.3-0.2-0.6-0.3-0.8-0.4c-0.2-0.1-0.4-0.2-0.5-0.2c-0.2,0-0.4,0.2-0.5,0.5c-0.1,0.3-0.1,0.8-0.1,1.4v4.8
					c0,0.3-0.1,0.6-0.3,0.8s-0.5,0.3-0.8,0.3c-0.3,0-0.6-0.1-0.8-0.3c-0.2-0.2-0.3-0.5-0.3-0.8v-7.1c0-0.7,0.2-1.2,0.7-1.7
					c0.5-0.5,1-0.7,1.7-0.7c0.2,0,0.5,0,0.7,0.1c0.2,0.1,0.4,0.2,0.6,0.3l11.3,6.9c0.3,0.2,0.6,0.3,0.8,0.4c0.2,0.1,0.4,0.2,0.5,0.2
					c0.2,0,0.4-0.2,0.5-0.5c0.1-0.3,0.1-0.8,0.1-1.4v-4.8C77,191.9,77.2,191.6,77.4,191.4z"/>
				<path id="XMLID_83_" class="st1" d="M84.2,195.2h5.7c0.9,0,1.7-0.1,2.5-0.3c0.8-0.2,1.6-0.5,2.4-0.9c0.8-0.4,1.5-0.8,2.2-1.2
					c0.7-0.5,1.4-0.9,2.1-1.4c0.3-0.2,0.6-0.3,0.8-0.3c0.3,0,0.6,0.1,0.8,0.3c0.2,0.2,0.3,0.5,0.3,0.8c0,0.2-0.1,0.4-0.2,0.6
					s-0.3,0.3-0.5,0.5c-0.4,0.3-0.8,0.6-1.2,0.9c-0.4,0.3-0.8,0.6-1.2,0.8c-0.4,0.2-0.8,0.5-1.2,0.7c-0.4,0.2-0.9,0.5-1.3,0.7
					c0.5,0.2,0.9,0.5,1.3,0.7c0.4,0.2,0.8,0.5,1.2,0.7c0.4,0.2,0.8,0.5,1.2,0.8c0.4,0.3,0.8,0.6,1.2,0.9c0.2,0.1,0.3,0.3,0.5,0.5
					c0.1,0.2,0.2,0.4,0.2,0.6c0,0.3-0.1,0.6-0.3,0.8c-0.2,0.2-0.5,0.3-0.8,0.3c-0.3,0-0.6-0.1-0.8-0.3c-0.7-0.5-1.4-1-2.1-1.4
					c-0.7-0.5-1.5-0.9-2.2-1.2c-0.8-0.4-1.6-0.6-2.4-0.9c-0.8-0.2-1.7-0.3-2.5-0.3h-5.7v3c0,0.3-0.1,0.6-0.3,0.8
					c-0.2,0.2-0.5,0.3-0.8,0.3c-0.3,0-0.6-0.1-0.8-0.3c-0.2-0.2-0.3-0.5-0.3-0.8v-8.4c0-0.3,0.1-0.6,0.3-0.8
					c0.2-0.2,0.5-0.3,0.8-0.3c0.3,0,0.6,0.1,0.8,0.3c0.2,0.2,0.3,0.5,0.3,0.8V195.2z"/>
				<path id="XMLID_81_" class="st1" d="M114.2,201.4c-0.2,0.2-0.5,0.3-0.8,0.3c-0.3,0-0.6-0.1-0.8-0.3c-0.2-0.2-0.3-0.5-0.3-0.8v-3
					c-0.6,0-1.2-0.1-1.8-0.2c-0.6-0.2-1.2-0.4-1.9-0.8c-0.6-0.4-1.3-0.8-2.1-1.4c-0.7-0.6-1.6-1.2-2.5-2c-0.1-0.1-0.2-0.3-0.3-0.4
					c-0.1-0.2-0.1-0.3-0.1-0.5c0-0.3,0.1-0.6,0.3-0.8c0.2-0.2,0.5-0.3,0.8-0.3c0.2,0,0.3,0,0.4,0.1c0.1,0.1,0.3,0.1,0.4,0.2
					c1,0.9,1.9,1.6,2.6,2.1c0.7,0.5,1.4,0.9,1.9,1.1c0.6,0.2,1.1,0.4,1.6,0.5c0.5,0.1,1.1,0.1,1.7,0.1s1.2,0,1.7-0.1
					c0.5,0,1-0.2,1.6-0.4c0.6-0.2,1.2-0.6,1.9-1.1c0.7-0.5,1.6-1.2,2.7-2.2c0.3-0.2,0.6-0.3,0.8-0.3c0.3,0,0.6,0.1,0.8,0.3
					c0.2,0.2,0.3,0.5,0.3,0.8c0,0.2,0,0.4-0.1,0.5c-0.1,0.2-0.2,0.3-0.3,0.4c-0.9,0.8-1.7,1.5-2.5,2c-0.8,0.6-1.5,1-2.1,1.4
					c-0.7,0.4-1.3,0.6-1.9,0.8c-0.6,0.2-1.2,0.2-1.7,0.2v3C114.6,200.9,114.5,201.2,114.2,201.4z"/>
				<path id="XMLID_77_" class="st1" d="M126.1,201.4c-0.2-0.2-0.3-0.5-0.3-0.8v-8.4c0-0.3,0.1-0.6,0.3-0.8c0.2-0.2,0.5-0.3,0.8-0.3
					h14.7c0.5,0,0.9,0.1,1.3,0.3c0.4,0.2,0.8,0.4,1.1,0.7c0.3,0.3,0.5,0.6,0.7,1c0.2,0.4,0.3,0.8,0.3,1.3c0,0.4-0.1,0.8-0.2,1.1
					c-0.1,0.4-0.3,0.7-0.6,0.9c0.2,0.3,0.4,0.6,0.6,0.9c0.1,0.4,0.2,0.7,0.2,1.1c0,0.5-0.1,0.9-0.3,1.3c-0.2,0.4-0.4,0.7-0.7,1
					c-0.3,0.3-0.7,0.5-1.1,0.7c-0.4,0.2-0.8,0.3-1.3,0.3h-14.7C126.6,201.8,126.3,201.7,126.1,201.4z M128.1,193.4v1.8h13.7
					c0.2,0,0.5-0.1,0.6-0.2c0.2-0.2,0.3-0.4,0.3-0.6c0-0.2-0.1-0.5-0.3-0.7c-0.2-0.2-0.4-0.3-0.7-0.3H128.1z M128.1,199.4h13.6
					c0.2,0,0.5-0.1,0.7-0.3c0.2-0.2,0.3-0.4,0.3-0.6c0-0.3-0.1-0.5-0.3-0.7c-0.2-0.2-0.4-0.3-0.7-0.3h-13.6V199.4z"/>
				<path id="XMLID_75_" class="st1" d="M149.5,201.3c-0.2,0.3-0.5,0.4-0.9,0.4c-0.3,0-0.6-0.1-0.8-0.3c-0.2-0.2-0.3-0.5-0.3-0.8
					c0-0.3,0.1-0.5,0.2-0.7l6-8c0.3-0.4,0.6-0.7,1.1-0.9c0.5-0.2,0.9-0.4,1.5-0.4c0.5,0,1,0.1,1.4,0.3c0.4,0.2,0.8,0.5,1.1,0.9l6,8
					c0.1,0.1,0.2,0.2,0.2,0.4c0.1,0.1,0.1,0.3,0.1,0.5c0,0.3-0.1,0.6-0.3,0.8c-0.2,0.2-0.5,0.3-0.8,0.3c-0.4,0-0.7-0.2-0.9-0.5
					l-5.7-7.6c-0.1-0.1-0.3-0.3-0.4-0.4c-0.2-0.2-0.3-0.2-0.5-0.2c-0.2,0-0.4,0.1-0.5,0.2c-0.2,0.2-0.3,0.3-0.4,0.4L149.5,201.3z"/>
				<path id="XMLID_73_" class="st1" d="M175.7,201.4c-0.2,0.2-0.5,0.3-0.8,0.3s-0.6-0.1-0.8-0.3s-0.3-0.5-0.3-0.8v-3
					c-0.6,0-1.2-0.1-1.8-0.2c-0.6-0.2-1.2-0.4-1.9-0.8c-0.6-0.4-1.3-0.8-2.1-1.4c-0.7-0.6-1.6-1.2-2.5-2c-0.1-0.1-0.2-0.3-0.3-0.4
					c-0.1-0.2-0.1-0.3-0.1-0.5c0-0.3,0.1-0.6,0.3-0.8c0.2-0.2,0.5-0.3,0.8-0.3c0.2,0,0.3,0,0.4,0.1c0.1,0.1,0.3,0.1,0.4,0.2
					c1,0.9,1.9,1.6,2.6,2.1c0.7,0.5,1.4,0.9,1.9,1.1c0.6,0.2,1.1,0.4,1.6,0.5c0.5,0.1,1.1,0.1,1.7,0.1c0.6,0,1.2,0,1.7-0.1
					c0.5,0,1-0.2,1.6-0.4c0.6-0.2,1.2-0.6,1.9-1.1c0.7-0.5,1.6-1.2,2.7-2.2c0.3-0.2,0.6-0.3,0.8-0.3c0.3,0,0.6,0.1,0.8,0.3
					c0.2,0.2,0.3,0.5,0.3,0.8c0,0.2,0,0.4-0.1,0.5c-0.1,0.2-0.2,0.3-0.3,0.4c-0.9,0.8-1.7,1.5-2.5,2c-0.8,0.6-1.5,1-2.1,1.4
					c-0.7,0.4-1.3,0.6-1.9,0.8c-0.6,0.2-1.2,0.2-1.7,0.2v3C176,200.9,175.9,201.2,175.7,201.4z"/>
			</g>
			<g id="XMLID_65_">
				<path id="XMLID_70_" class="st1" d="M184.9,138.2c0,11.8-4.8,22.5-12.5,30.2c-7.7,7.7-18.4,12.5-30.2,12.5h-26.5
					c-8.2,0-14.8-6.6-14.8-14.8V51c0-8.2,6.6-14.8,14.8-14.8c4.1,0,7.8,1.7,10.5,4.3c2.7,2.7,4.3,6.4,4.3,10.5v44.5h11.7
					C165.8,95.5,184.9,114.6,184.9,138.2z"/>
				<path id="XMLID_68_" class="st2" d="M157.5,138.3c0,9.3-7.6,16.9-16.9,16.9s-16.9-7.6-16.9-16.9s7.6-16.9,16.9-16.9
					S157.5,129,157.5,138.3z"/>
				<path id="XMLID_67_" class="st1" d="M59.2,47.8c0-1.6,0.3-3.1,0.9-4.5c0.6-1.4,1.4-2.6,2.4-3.7c1-1.1,2.2-1.9,3.6-2.5
					c1.4-0.6,2.8-0.9,4.3-0.9c1.5,0,3,0.3,4.3,0.9c1.4,0.6,2.5,1.4,3.6,2.5c1,1.1,1.8,2.3,2.4,3.7c0.6,1.4,0.9,2.9,0.9,4.5
					c0,1.6-0.3,3.1-0.9,4.5c-0.6,1.4-1.4,2.6-2.4,3.7c-1,1.1-2.2,1.9-3.6,2.5c-1.4,0.6-2.8,0.9-4.3,0.9c-1.5,0-3-0.3-4.3-0.9
					c-1.4-0.6-2.5-1.4-3.6-2.5c-1-1.1-1.8-2.3-2.4-3.7C59.4,50.8,59.2,49.3,59.2,47.8z"/>
				<path id="XMLID_66_" class="st1" d="M85,163.8v2.4c-0.1,8-6.6,14.5-14.7,14.5c-8.1,0-14.6-6.5-14.7-14.5v-2.4
					c0-26.4,0-52.8,0-79.2v-22h4.1v40c0,3.7,0.1,7.3,0,11c-0.1,2.6,0.4,5,1.3,7.4c3,7.7,3.4,15.7,3.4,23.8c0,1.3-0.5,2.6-0.8,3.8
					c-0.5,2.5-1.3,5-1.4,7.5c-0.2,2.7,1.2,5,3.4,6.6c1.9,1.3,3.8,1.3,5.5-0.2c2.5-2.2,3.3-5,2.5-8.1c-0.6-2.4-1.7-4.7-2.6-7.1
					c-3.7-9.7-2.7-19,2.3-27.9c1.1-2,2.7-3.3,5.2-2.8c1.5,0.3,1.9-0.4,1.9-1.9c0-11.8,0-23.6,0-35.4V62.6H85v16.7
					c0,6.3,0,12.6,0,18.9v16.7C85,131.2,85,147.5,85,163.8z"/>
			</g>
		</g>
	</g>
	<g id="XMLID_22_">
		<path id="XMLID_60_" class="st3" d="M261.4,200.1h-10.1v-38.7h16c4.3,0,7.7,1.1,10,3.4c2.3,2.3,3.5,5.4,3.5,9.5s-1.2,7.3-3.5,9.5
			c-2.3,2.3-5.6,3.4-10,3.4h-6V200.1z M261.4,179.1h3.3c3.7,0,5.5-1.6,5.5-4.8c0-3.2-1.8-4.8-5.5-4.8h-3.3V179.1z"/>
		<path id="XMLID_58_" class="st3" d="M285.3,173.7h9.3v4.3c1-1.6,2.2-2.8,3.6-3.6c1.4-0.8,3.1-1.3,5-1.3c0.2,0,0.5,0,0.8,0
			c0.3,0,0.6,0,1,0.1v8.9c-1.2-0.6-2.6-0.9-4-0.9c-2.2,0-3.8,0.6-4.9,1.9c-1.1,1.3-1.6,3.2-1.6,5.6v11.3h-9.3V173.7z"/>
		<path id="XMLID_55_" class="st3" d="M308.4,186.7c0-2,0.4-3.8,1.2-5.5c0.8-1.7,1.9-3.2,3.3-4.4c1.4-1.2,3.1-2.2,5-3
			c1.9-0.7,4-1.1,6.3-1.1c2.3,0,4.4,0.4,6.3,1.1c1.9,0.7,3.6,1.7,5,2.9c1.4,1.2,2.5,2.7,3.3,4.5c0.8,1.7,1.2,3.6,1.2,5.7
			c0,2.1-0.4,4-1.2,5.7c-0.8,1.7-1.9,3.2-3.3,4.5c-1.4,1.2-3.1,2.2-5.1,2.9c-2,0.7-4.1,1-6.4,1c-2.3,0-4.3-0.3-6.3-1
			c-1.9-0.7-3.6-1.7-5-2.9c-1.4-1.3-2.5-2.8-3.3-4.5C308.8,190.8,308.4,188.8,308.4,186.7z M318.2,186.8c0,0.9,0.2,1.7,0.5,2.4
			c0.3,0.7,0.8,1.4,1.3,1.9c0.5,0.5,1.2,1,1.9,1.3c0.7,0.3,1.5,0.5,2.3,0.5s1.6-0.2,2.3-0.5c0.7-0.3,1.4-0.7,1.9-1.3
			c0.5-0.5,1-1.2,1.3-1.9c0.3-0.7,0.5-1.5,0.5-2.4c0-0.8-0.2-1.6-0.5-2.3c-0.3-0.7-0.8-1.4-1.3-1.9c-0.5-0.5-1.2-1-1.9-1.3
			s-1.5-0.5-2.3-0.5s-1.6,0.2-2.3,0.5c-0.7,0.3-1.4,0.7-1.9,1.3c-0.5,0.5-1,1.2-1.3,1.9C318.3,185.2,318.2,186,318.2,186.8z"/>
		<path id="XMLID_52_" class="st3" d="M365.6,157.5h9.3v42.6h-9.3v-2.9c-2,2.5-4.7,3.7-8.1,3.7c-1.9,0-3.7-0.4-5.3-1.1
			c-1.6-0.7-3-1.7-4.2-3c-1.2-1.3-2.1-2.8-2.8-4.5c-0.7-1.7-1-3.6-1-5.5c0-1.9,0.3-3.7,0.9-5.4c0.6-1.7,1.5-3.2,2.7-4.4
			c1.2-1.3,2.6-2.3,4.2-3c1.6-0.7,3.4-1.1,5.4-1.1c3.3,0,6,1.1,8.2,3.4V157.5z M353.9,186.8c0,0.9,0.2,1.7,0.5,2.4
			c0.3,0.7,0.7,1.4,1.3,1.9c0.5,0.5,1.2,1,1.9,1.3c0.7,0.3,1.5,0.5,2.4,0.5c0.8,0,1.6-0.2,2.3-0.5c0.7-0.3,1.4-0.7,1.9-1.3
			c0.5-0.5,1-1.2,1.3-1.9c0.3-0.7,0.5-1.5,0.5-2.3s-0.2-1.6-0.5-2.3c-0.3-0.7-0.8-1.4-1.3-1.9c-0.5-0.5-1.2-1-1.9-1.3
			c-0.7-0.3-1.5-0.5-2.3-0.5s-1.6,0.2-2.3,0.5s-1.4,0.7-1.9,1.3c-0.5,0.5-1,1.2-1.3,1.9C354.1,185.2,353.9,186,353.9,186.8z"/>
		<path id="XMLID_50_" class="st3" d="M390.6,173.7v14.8c0,3.3,1.6,4.9,4.7,4.9c3.1,0,4.7-1.6,4.7-4.9v-14.8h9.3v16.6
			c0,3.6-1.2,6.2-3.5,8c-2.3,1.8-5.8,2.7-10.5,2.7c-4.7,0-8.2-0.9-10.5-2.7c-2.3-1.8-3.5-4.4-3.5-8v-16.6H390.6z"/>
		<path id="XMLID_48_" class="st3" d="M435.5,182.3c-1.6-1.1-3.2-1.6-4.9-1.6c-0.9,0-1.7,0.2-2.5,0.5c-0.8,0.3-1.4,0.7-2,1.3
			c-0.6,0.6-1,1.2-1.4,2c-0.3,0.8-0.5,1.6-0.5,2.6c0,0.9,0.2,1.8,0.5,2.5c0.3,0.8,0.8,1.4,1.3,2c0.6,0.6,1.2,1,2,1.3
			c0.8,0.3,1.6,0.5,2.5,0.5c1.7,0,3.4-0.6,4.9-1.8v7.9c-2.3,1-4.5,1.5-6.5,1.5c-1.9,0-3.7-0.3-5.5-1c-1.7-0.6-3.3-1.6-4.6-2.8
			c-1.3-1.2-2.4-2.7-3.2-4.4c-0.8-1.7-1.2-3.6-1.2-5.7c0-2.1,0.4-4,1.1-5.7c0.8-1.7,1.8-3.2,3.1-4.5c1.3-1.2,2.8-2.2,4.6-2.9
			c1.8-0.7,3.7-1.1,5.8-1.1c2.3,0,4.3,0.5,6.3,1.4V182.3z"/>
		<path id="XMLID_46_" class="st3" d="M451.2,181.5v18.6h-9.3v-18.6h-3.1v-7.7h3.1v-7.9h9.3v7.9h5.3v7.7H451.2z"/>
		<path id="XMLID_44_" class="st3" d="M506.1,174.3c-2.3-2.8-5.2-4.3-8.6-4.3c-1.5,0-2.9,0.3-4.2,0.8c-1.3,0.5-2.4,1.3-3.3,2.2
			c-0.9,0.9-1.7,2.1-2.2,3.4c-0.5,1.3-0.8,2.7-0.8,4.2c0,1.5,0.3,3,0.8,4.3c0.5,1.3,1.3,2.4,2.2,3.4c0.9,1,2,1.7,3.3,2.3
			c1.3,0.5,2.6,0.8,4.1,0.8c3.2,0,6.1-1.4,8.7-4.1v11.9l-1,0.4c-1.5,0.5-3,0.9-4.3,1.2c-1.3,0.3-2.7,0.4-4,0.4
			c-2.7,0-5.2-0.5-7.7-1.5c-2.4-1-4.6-2.4-6.5-4.3c-1.9-1.8-3.4-4-4.5-6.5c-1.1-2.5-1.7-5.3-1.7-8.2c0-3,0.6-5.7,1.7-8.2
			c1.1-2.5,2.6-4.6,4.5-6.4c1.9-1.8,4-3.2,6.5-4.2c2.5-1,5-1.5,7.8-1.5c1.5,0,3.1,0.2,4.5,0.5c1.5,0.3,3.1,0.8,4.7,1.5V174.3z"/>
		<path id="XMLID_42_" class="st3" d="M520.9,173.7v14.8c0,3.3,1.6,4.9,4.7,4.9s4.7-1.6,4.7-4.9v-14.8h9.3v16.6c0,3.6-1.2,6.2-3.5,8
			c-2.3,1.8-5.8,2.7-10.5,2.7c-4.7,0-8.2-0.9-10.5-2.7c-2.3-1.8-3.5-4.4-3.5-8v-16.6H520.9z"/>
		<path id="XMLID_40_" class="st3" d="M563.4,180.5c-1.7-0.9-3.4-1.3-5-1.3c-0.9,0-1.5,0.2-2.1,0.5c-0.5,0.3-0.8,0.8-0.8,1.4
			c0,0.3,0,0.6,0.1,0.7c0.1,0.2,0.3,0.4,0.6,0.5s0.7,0.3,1.3,0.5c0.6,0.1,1.3,0.3,2.2,0.5c2.6,0.5,4.5,1.4,5.7,2.7
			c1.3,1.3,1.9,3,1.9,5.1c0,1.5-0.3,2.9-0.9,4.2c-0.6,1.2-1.5,2.3-2.6,3.1c-1.1,0.8-2.4,1.5-4,2c-1.5,0.5-3.2,0.7-5.1,0.7
			c-3.6,0-7.1-1-10.5-3l3.4-6.6c2.6,1.8,5.1,2.7,7.4,2.7c0.9,0,1.6-0.2,2.1-0.6c0.5-0.4,0.8-0.9,0.8-1.4c0-0.3,0-0.6-0.1-0.8
			c-0.1-0.2-0.3-0.4-0.5-0.6c-0.3-0.2-0.7-0.4-1.2-0.5c-0.5-0.2-1.2-0.3-2.1-0.5c-2.9-0.6-4.9-1.4-6-2.6c-1.1-1.1-1.7-2.7-1.7-4.7
			c0-1.5,0.3-2.8,0.8-4c0.5-1.2,1.3-2.2,2.4-3c1-0.8,2.3-1.5,3.7-1.9c1.5-0.4,3.1-0.7,4.9-0.7c2.9,0,5.7,0.6,8.5,1.7L563.4,180.5z"
			/>
		<path id="XMLID_38_" class="st3" d="M583.2,181.5v18.6h-9.3v-18.6h-3.1v-7.7h3.1v-7.9h9.3v7.9h5.3v7.7H583.2z"/>
		<path id="XMLID_35_" class="st3" d="M591.4,186.7c0-2,0.4-3.8,1.2-5.5s1.9-3.2,3.3-4.4c1.4-1.2,3.1-2.2,5-3c1.9-0.7,4-1.1,6.3-1.1
			c2.3,0,4.4,0.4,6.3,1.1c1.9,0.7,3.6,1.7,5,2.9c1.4,1.2,2.5,2.7,3.3,4.5c0.8,1.7,1.2,3.6,1.2,5.7c0,2.1-0.4,4-1.2,5.7
			c-0.8,1.7-1.9,3.2-3.3,4.5c-1.4,1.2-3.1,2.2-5.1,2.9c-2,0.7-4.1,1-6.4,1c-2.3,0-4.3-0.3-6.3-1c-1.9-0.7-3.6-1.7-5-2.9
			c-1.4-1.3-2.5-2.8-3.3-4.5C591.8,190.8,591.4,188.8,591.4,186.7z M601.2,186.8c0,0.9,0.2,1.7,0.5,2.4s0.8,1.4,1.3,1.9
			c0.5,0.5,1.2,1,1.9,1.3c0.7,0.3,1.5,0.5,2.3,0.5s1.6-0.2,2.3-0.5c0.7-0.3,1.4-0.7,1.9-1.3c0.5-0.5,1-1.2,1.3-1.9s0.5-1.5,0.5-2.4
			c0-0.8-0.2-1.6-0.5-2.3c-0.3-0.7-0.8-1.4-1.3-1.9c-0.5-0.5-1.2-1-1.9-1.3s-1.5-0.5-2.3-0.5s-1.6,0.2-2.3,0.5
			c-0.7,0.3-1.4,0.7-1.9,1.3c-0.5,0.5-1,1.2-1.3,1.9C601.3,185.2,601.2,186,601.2,186.8z"/>
		<path id="XMLID_33_" class="st3" d="M628.3,173.7h9.3v3.2c2.5-2.4,5.4-3.6,8.5-3.6c3.9,0,6.9,1.6,8.9,4.9c2.1-3.3,5.1-5,8.9-5
			c1.2,0,2.4,0.2,3.5,0.5c1.1,0.4,2,0.9,2.8,1.7c0.8,0.8,1.4,1.8,1.9,3c0.5,1.2,0.7,2.7,0.7,4.5v17.1h-9.3v-13
			c0-1.3-0.1-2.4-0.3-3.3c-0.2-0.9-0.5-1.5-0.8-2c-0.4-0.5-0.8-0.8-1.3-1c-0.5-0.2-1-0.3-1.5-0.3c-3,0-4.5,2.2-4.5,6.5v13h-9.3v-13
			c0-1.3-0.1-2.4-0.3-3.3c-0.2-0.9-0.4-1.6-0.7-2.1c-0.3-0.5-0.7-0.9-1.3-1.1c-0.5-0.2-1.1-0.3-1.8-0.3c-0.6,0-1.1,0.1-1.6,0.3
			c-0.5,0.2-1,0.5-1.4,1c-0.4,0.5-0.7,1.2-0.9,2.1c-0.2,0.9-0.3,2-0.3,3.4v13h-9.3V173.7z"/>
		<path id="XMLID_30_" class="st3" d="M678.6,163.6c0-0.7,0.1-1.4,0.4-2c0.3-0.6,0.6-1.2,1.1-1.7c0.5-0.5,1-0.9,1.7-1.1
			c0.6-0.3,1.3-0.4,2-0.4s1.4,0.1,2,0.4c0.6,0.3,1.2,0.7,1.7,1.1c0.5,0.5,0.9,1,1.1,1.7c0.3,0.6,0.4,1.3,0.4,2s-0.1,1.4-0.4,2
			c-0.3,0.6-0.7,1.2-1.1,1.7c-0.5,0.5-1,0.9-1.7,1.1c-0.6,0.3-1.3,0.4-2,0.4s-1.4-0.1-2-0.4c-0.6-0.3-1.2-0.6-1.7-1.1
			c-0.5-0.5-0.9-1-1.1-1.7C678.8,165,678.6,164.3,678.6,163.6z M688.5,173.7v26.3h-9.3v-26.3H688.5z"/>
		<path id="XMLID_28_" class="st3" d="M708.5,192.3h11.1v7.8h-26.7l12.4-18.6h-10.7v-7.7h26.2L708.5,192.3z"/>
		<path id="XMLID_25_" class="st3" d="M733.5,188.5c0,4,1.9,6,5.6,6c2,0,3.5-0.8,4.6-2.5h9c-1.8,6-6.3,9-13.6,9
			c-2.2,0-4.3-0.3-6.1-1c-1.8-0.7-3.4-1.6-4.7-2.8c-1.3-1.2-2.3-2.7-3.1-4.4c-0.7-1.7-1.1-3.6-1.1-5.7c0-2.2,0.3-4.2,1-5.9
			c0.7-1.8,1.7-3.3,2.9-4.5c1.3-1.2,2.8-2.2,4.6-2.8c1.8-0.7,3.8-1,6.1-1c2.2,0,4.2,0.3,6,1c1.8,0.7,3.3,1.6,4.5,2.9
			c1.2,1.3,2.2,2.8,2.8,4.6c0.6,1.8,1,3.9,1,6.2v1H733.5z M744.4,183.1c-0.3-1.3-0.9-2.3-1.9-3.1c-1-0.8-2.1-1.2-3.5-1.2
			c-1.4,0-2.6,0.4-3.5,1.1c-0.9,0.8-1.5,1.8-1.7,3.2H744.4z"/>
		<path id="XMLID_23_" class="st3" d="M758.3,173.7h9.3v4.3c1-1.6,2.2-2.8,3.6-3.6c1.4-0.8,3.1-1.3,5-1.3c0.2,0,0.5,0,0.8,0
			c0.3,0,0.6,0,1,0.1v8.9c-1.2-0.6-2.6-0.9-4-0.9c-2.2,0-3.8,0.6-4.9,1.9c-1.1,1.3-1.6,3.2-1.6,5.6v11.3h-9.3V173.7z"/>
	</g>
	<g id="XMLID_3_">
		<g id="XMLID_4_">
			<path id="XMLID_20_" class="st2" d="M274.9,36.3v90.4h-23.5V36.3H274.9z"/>
			<path id="XMLID_18_" class="st2" d="M291.8,65.2h21.7V73c3-3.6,6-6,9-7.3c3-1.2,6.6-1.9,10.7-1.9c4.3,0,8,0.7,11.1,2.1
				c3.1,1.4,5.7,3.4,7.9,5.9c1.8,2.1,3,4.4,3.6,7c0.6,2.6,1,5.5,1,8.8v39.1H335V95.7c0-3-0.2-5.5-0.7-7.4c-0.4-1.9-1.2-3.4-2.3-4.5
				c-1-1-2-1.6-3.2-2c-1.2-0.4-2.5-0.6-3.8-0.6c-3.7,0-6.5,1.1-8.5,3.3c-2,2.2-2.9,5.3-2.9,9.4v32.9h-21.7V65.2z"/>
			<path id="XMLID_16_" class="st2" d="M393.1,27.2v60.2l22.8-22.2h29.7l-30.8,28.4l32.6,33.1H417l-23.9-25.1v25.1h-21.7V27.2H393.1
				z"/>
			<path id="XMLID_14_" class="st2" d="M477.5,118.4l-29.8-53.1h25.2l16.4,31.5l16-31.5h25l-49.4,92.2h-24.4L477.5,118.4z"/>
			<path id="XMLID_10_" class="st2" d="M539.7,36.3h35c8.3,0,14.6,2,19,6c4.3,4,6.5,9.8,6.5,17.3c0,4.6-0.8,8.3-2.5,11.3
				c-1.6,3-4.1,5.5-7.5,7.6c3.4,0.6,6.2,1.6,8.6,2.9c2.4,1.3,4.3,2.9,5.8,4.9c1.5,1.9,2.5,4.1,3.2,6.5c0.6,2.4,1,5,1,7.7
				c0,4.2-0.7,8-2.2,11.3c-1.5,3.3-3.6,6-6.2,8.3c-2.7,2.2-5.9,3.9-9.8,5c-3.8,1.1-8.2,1.7-13,1.7h-37.8V36.3z M563.2,71.8h4.3
				c7.4,0,11-2.9,11-8.8c0-5.8-3.7-8.8-11-8.8h-4.3V71.8z M563.2,108.5h5.2c5.9,0,10.2-0.8,12.7-2.3c2.6-1.5,3.8-4,3.8-7.3
				c0-3.4-1.3-5.8-3.8-7.3c-2.6-1.5-6.8-2.3-12.7-2.3h-5.2V108.5z"/>
			<path id="XMLID_7_" class="st2" d="M668.2,65.2H690v61.5h-21.8v-6.8c-4.6,5.8-10.9,8.8-18.8,8.8c-4.5,0-8.6-0.8-12.4-2.5
				c-3.8-1.6-7-3.9-9.8-6.9c-2.8-3-5-6.4-6.5-10.4c-1.6-4-2.3-8.4-2.3-13.1c0-4.4,0.8-8.6,2.3-12.5c1.5-4,3.6-7.4,6.4-10.4
				c2.7-3,6-5.3,9.7-7c3.8-1.7,7.9-2.6,12.5-2.6c7.7,0,14,2.7,19.1,8V65.2z M640.8,95.8c0,2,0.4,3.9,1.1,5.6
				c0.7,1.7,1.7,3.2,2.9,4.5c1.2,1.3,2.7,2.3,4.4,3c1.7,0.7,3.6,1.1,5.6,1.1c1.9,0,3.7-0.4,5.5-1.1c1.7-0.7,3.2-1.7,4.4-3
				c1.2-1.3,2.2-2.8,3-4.4c0.8-1.7,1.1-3.5,1.1-5.4c0-1.9-0.4-3.7-1.1-5.5c-0.8-1.7-1.8-3.2-3-4.5c-1.2-1.3-2.7-2.3-4.4-3
				c-1.7-0.7-3.5-1.1-5.5-1.1c-2,0-3.9,0.4-5.6,1.1c-1.7,0.7-3.2,1.7-4.4,3c-1.2,1.3-2.2,2.7-2.9,4.4
				C641.2,92.1,640.8,93.9,640.8,95.8z"/>
			<path id="XMLID_5_" class="st2" d="M728.3,118.4l-29.8-53.1h25.2l16.4,31.5l16-31.5h25l-49.4,92.2h-24.4L728.3,118.4z"/>
		</g>
	</g>
</g>
</svg>
